<?xml version="1.0" encoding="UTF-8" standalone="no"?>
<svg
   xmlns:dc="http://purl.org/dc/elements/1.1/"
   xmlns:cc="http://creativecommons.org/ns#"
   xmlns:rdf="http://www.w3.org/1999/02/22-rdf-syntax-ns#"
   xmlns:svg="http://www.w3.org/2000/svg"
   xmlns="http://www.w3.org/2000/svg"
   viewBox="0 0 228.10001 58.762501"
   height="58.762501"
   width="228.10001"
   xml:space="preserve"
   version="1.1"
   id="svg2"><metadata
     id="metadata8"><rdf:RDF><cc:Work
         rdf:about=""><dc:format>image/svg+xml</dc:format><dc:type
           rdf:resource="http://purl.org/dc/dcmitype/StillImage" /></cc:Work></rdf:RDF></metadata><defs
     id="defs6" /><g
     transform="matrix(1.25,0,0,-1.25,0,58.7625)"
     id="g10"><g
       transform="scale(0.1,0.1)"
       id="g12"><path
         id="path14"
         style="fill:#e5143c;fill-opacity:1;fill-rule:nonzero;stroke:none"
         d="m 0,0 672.336,0 0,470.078 L 0,470.078 0,0 Z" /><path
         id="path16"
         style="fill:#ffffff;fill-opacity:1;fill-rule:nonzero;stroke:none"
         d="m 633.203,39.2188 -594.1014,0 0,391.7582 594.1014,0 0,-391.7582 z M 27.6445,442.449 l 0,-414.7927 617.0745,0 0,414.7927 -617.0745,0" /><path
         id="path18"
         style="fill:#ffffff;fill-opacity:1;fill-rule:nonzero;stroke:none"
         d="m 269.949,190.977 c -0.078,-24.903 -11.902,-50.801 -54.09,-50.86 -26.945,0.145 -35.898,8.242 -36.054,32.488 l 0,67.961 34.121,0 c 37.375,-0.019 55.996,-25.105 56.023,-49.589 z m -55.683,57.05 -34.461,0 0,78.262 c 8.093,0.332 20.832,0.957 27.675,0.957 39.383,-0.098 52.422,-20.254 52.481,-42.5 -0.059,-24.805 -14.934,-36.613 -45.695,-36.719 z m 40.121,-2.043 c 21.148,4.387 35.894,21.379 35.926,39.719 0.019,15.645 -6.614,26.895 -19.954,36.317 -11.843,8.546 -36.718,12.648 -65.136,12.675 -6.153,0 -30.625,-0.34 -48.348,-0.976 -9.355,-0.321 -31.574,-1.602 -40.574,-1.942 l -0.656,0 0,-7.453 11.933,0 c 22.274,-0.164 23.945,-8.972 24.16,-27.351 l 0,-133.692 c -0.215,-20.168 -4.55,-25.539 -30.91,-25.761 l -8.105,0 0,-7.461 118.593,0 c 52.231,0.078 70.176,36.152 70.254,61.914 0,25.097 -17.507,44.804 -47.183,54.011" /><path
         id="path20"
         style="fill:#ffffff;fill-opacity:1;fill-rule:nonzero;stroke:none"
         d="m 486.141,332.813 0,-8.145 0.949,-0.078 c 26.816,-1.621 30.5,-5.781 30.848,-36.973 l 0,-75.625 c -0.094,-54.59 -36.532,-69.25 -73.008,-69.394 -47.957,0.125 -72.84,25.722 -72.95,69.101 l 0,90.223 c 0.239,18.449 6.875,22.433 24.614,22.668 l 3.902,0 0,8.223 -85.418,0 0,-8.196 0.985,-0.027 c 22.089,-0.645 26.605,-2.813 26.925,-23.32 l 0,-94.786 c 0.067,-46.914 32.434,-82.714 94.825,-82.793 70.906,0.079 97,43.75 97.078,84.434 l 0,87.625 c 0.214,20.508 7.101,28.313 28.535,28.84 l 1.015,0.019 0,8.204 -78.3,0" /><path
         id="path22"
         style="fill:#231f20;fill-opacity:1;fill-rule:nonzero;stroke:none"
         d="m 802.168,126.348 0,207 20.703,0 0,-188.399 79.797,0 3.008,-18.601 -103.508,0" /><path
         id="path24"
         style="fill:#231f20;fill-opacity:1;fill-rule:nonzero;stroke:none"
         d="m 939.559,126.348 0,141.902 19.511,0 0,-141.902 -19.511,0 z m 9.906,175.8 c -7.793,0 -14.399,6.602 -14.399,14.403 0,7.793 6.606,14.394 14.399,14.394 7.801,0 14.098,-6.601 14.098,-14.394 0,-7.801 -6.297,-14.403 -14.098,-14.403" /><path
         id="path26"
         style="fill:#231f20;fill-opacity:1;fill-rule:nonzero;stroke:none"
         d="m 1068.86,253.543 c -15.9,0 -29.1,-9.891 -41.7,-24.598 l 0,-81.601 c 9,-3.594 18.3,-5.696 32.7,-5.696 28.2,0 48,18.301 48,58.801 0,34.5 -16.5,53.094 -39,53.094 z m -9.9,-128.992 c -19.79,0 -35.7,3.894 -51.6,9.297 l 0,204.297 19.8,3.601 0,-92.098 c 10.2,11.102 24,21.602 43.81,21.602 30.89,0 56.99,-22.5 56.99,-69.902 0,-51.907 -29.7,-76.797 -69,-76.797" /><path
         id="path28"
         style="fill:#231f20;fill-opacity:1;fill-rule:nonzero;stroke:none"
         d="m 1185.56,215.449 0,-89.101 -19.8,0 0,141.902 14.7,0 4.5,-29.102 c 10.5,15.899 27,31.497 50.4,32.102 l 3.3,-18.605 c -23.4,-1.493 -43.49,-18.301 -53.1,-37.196" /><path
         id="path30"
         style="fill:#231f20;fill-opacity:1;fill-rule:nonzero;stroke:none"
         d="m 1345.74,201.648 c -55.8,-5.703 -71.4,-19.199 -71.4,-38.398 0,-15.301 10.49,-23.105 25.49,-23.105 15.32,0 32.11,8.398 45.91,21.3 l 0,40.203 z m 4.5,-75.3 -3.3,18.894 c -13.2,-12.293 -29.7,-21.894 -50.1,-21.894 -24.6,0 -42.3,13.496 -42.3,38.703 0,33.301 26.99,48.894 91.2,55.195 l 0,9.305 c 0,19.199 -11.4,27.297 -29.4,27.297 -16.8,0 -33.3,-5.098 -48.9,-12.598 l -2.7,17.695 c 16.5,7.207 32.7,12.305 52.8,12.305 31.49,0 47.7,-14.699 47.7,-43.801 l 0,-101.101 -15,0" /><path
         id="path32"
         style="fill:#231f20;fill-opacity:1;fill-rule:nonzero;stroke:none"
         d="m 1430.04,215.449 0,-89.101 -19.8,0 0,141.902 14.69,0 4.51,-29.102 c 10.5,15.899 26.99,31.497 50.4,32.102 l 3.29,-18.605 c -23.39,-1.493 -43.49,-18.301 -53.09,-37.196" /><path
         id="path34"
         style="fill:#231f20;fill-opacity:1;fill-rule:nonzero;stroke:none"
         d="m 1515.54,126.348 0,141.902 19.5,0 0,-141.902 -19.5,0 z m 9.9,175.8 c -7.79,0 -14.4,6.602 -14.4,14.403 0,7.793 6.61,14.394 14.4,14.394 7.8,0 14.1,-6.601 14.1,-14.394 0,-7.801 -6.3,-14.403 -14.1,-14.403" /><path
         id="path36"
         style="fill:#231f20;fill-opacity:1;fill-rule:nonzero;stroke:none"
         d="m 1595.33,211.551 77.4,0 c -1.79,25.5 -14.1,43.801 -36.9,43.801 -22.2,0 -36.9,-16.504 -40.5,-43.801 z m 43.2,-88.203 c -37.19,0 -63.89,25.195 -63.89,74.101 0,45.598 26.39,73.801 61.19,73.801 38.7,0 57.3,-31.797 57.3,-71.105 l 0,-4.2 -98.7,0 c 0.61,-35.097 16.8,-55.496 45.31,-55.496 18.89,0 35.4,8.399 50.09,20.996 l 3,-18 c -14.1,-12 -32.39,-20.097 -54.3,-20.097" /><path
         id="path38"
         style="fill:#231f20;fill-opacity:1;fill-rule:nonzero;stroke:none"
         d="m 1772.03,123.652 c -18.91,0 -38.7,5.996 -51.01,12.899 l 3.31,19.199 c 13.2,-8.406 30.6,-15.301 49.5,-15.301 19.8,0 32.1,8.399 32.1,22.801 0,14.094 -8.4,20.402 -36.6,27.902 -31.5,8.094 -45,18.289 -45,41.7 0,22.195 18.9,38.398 48.3,38.398 16.8,0 31.5,-3.898 44.1,-9.602 l -3.3,-18.906 c -12.9,6.906 -27.3,11.106 -41.4,11.106 -19.5,0 -28.8,-8.399 -28.8,-20.098 0,-11.699 7.79,-17.707 31.8,-24.004 33.6,-8.996 49.8,-19.797 49.8,-45 0,-25.801 -20.1,-41.094 -52.8,-41.094" /></g></g></svg>